<svg xmlns="http://www.w3.org/2000/svg" xmlns:xlink="http://www.w3.org/1999/xlink" preserveAspectRatio="xMidYMid" width="21" height="21" viewBox="0 0 21 21">
  <defs>
    <style>
      .cls-1 {
        fill: #adadad;
        fill-rule: evenodd;
      }
    </style>
  </defs>
  <path d="M10.500,21.000 C4.710,21.000 0.000,16.290 0.000,10.500 C0.000,4.710 4.710,0.000 10.500,0.000 C16.290,0.000 21.000,4.710 21.000,10.500 C21.000,16.290 16.290,21.000 10.500,21.000 ZM10.500,1.400 C5.482,1.400 1.400,5.482 1.400,10.500 C1.400,15.518 5.482,19.600 10.500,19.600 C15.518,19.600 19.600,15.518 19.600,10.500 C19.600,5.482 15.518,1.400 10.500,1.400 ZM13.660,15.290 C13.583,15.318 13.502,15.332 13.420,15.332 C13.127,15.332 12.863,15.147 12.763,14.872 L11.843,12.344 L9.268,12.344 L8.342,14.870 C8.241,15.144 7.977,15.329 7.684,15.329 C7.601,15.329 7.520,15.314 7.442,15.285 C7.268,15.222 7.128,15.093 7.049,14.923 C6.971,14.753 6.963,14.563 7.027,14.388 L9.843,6.711 C9.949,6.422 10.249,6.252 10.549,6.268 C10.856,6.239 11.175,6.410 11.284,6.710 L14.078,14.393 C14.210,14.756 14.022,15.158 13.660,15.290 ZM10.561,8.818 L9.782,10.944 L11.334,10.944 L10.561,8.818 Z" class="cls-1"/>
</svg>
