<svg xmlns="http://www.w3.org/2000/svg" xmlns:xlink="http://www.w3.org/1999/xlink" preserveAspectRatio="xMidYMid" width="21" height="21" viewBox="0 0 21 21">
  <defs>
    <style>
      .cls-1 {
        fill: #adadad;
        fill-rule: evenodd;
      }
    </style>
  </defs>
  <path d="M10.500,21.000 C4.710,21.000 0.000,16.290 0.000,10.500 C0.000,4.710 4.710,0.000 10.500,0.000 C16.290,0.000 21.000,4.710 21.000,10.500 C21.000,16.290 16.290,21.000 10.500,21.000 ZM10.500,1.400 C5.482,1.400 1.400,5.482 1.400,10.500 C1.400,15.518 5.482,19.600 10.500,19.600 C15.518,19.600 19.600,15.518 19.600,10.500 C19.600,5.482 15.518,1.400 10.500,1.400 ZM16.089,14.296 C16.089,14.682 15.775,14.996 15.389,14.996 C15.003,14.996 14.689,14.682 14.689,14.296 L14.689,9.122 L11.526,12.679 C11.394,12.828 11.203,12.914 11.003,12.914 C10.897,12.914 10.798,12.883 10.704,12.838 C10.583,12.808 10.469,12.757 10.379,12.667 L6.587,8.875 L6.587,14.296 C6.587,14.682 6.273,14.996 5.887,14.996 C5.501,14.996 5.187,14.682 5.187,14.296 L5.187,7.299 C5.187,7.182 5.223,7.076 5.275,6.979 C5.309,6.887 5.360,6.801 5.431,6.730 C5.696,6.465 6.157,6.465 6.421,6.730 L10.932,11.241 L14.890,6.790 C15.135,6.513 15.600,6.485 15.878,6.733 C16.018,6.857 16.100,7.028 16.111,7.214 C16.115,7.271 16.099,7.324 16.089,7.378 L16.089,14.296 Z" class="cls-1"/>
</svg>
